<svg xmlns="http://www.w3.org/2000/svg" version="1.1" xmlns:xlink="http://www.w3.org/1999/xlink" xmlns:svgjs="http://svgjs.dev/svgjs" width="1440" height="560" preserveAspectRatio="none" viewBox="0 0 1440 560"><g mask="url(&quot;#SvgjsMask1003&quot;)" fill="none"><rect width="1440" height="560" x="0" y="0" fill="url(&quot;#SvgjsRadialGradient1004&quot;)"></rect><path d="M-50.9 343.1L-50.9 343.1" stroke="rgba(19, 46, 101, 0.12)" stroke-width="1.5"></path><path d="M-50.9 343.1L-48.92 493.56" stroke="rgba(19, 46, 101, 0.12)" stroke-width="1.5"></path><path d="M-50.9 343.1L102.3 387.54" stroke="rgba(19, 46, 101, 0.12)" stroke-width="1.5"></path><path d="M-50.9 343.1L205.88 412.44" stroke="rgba(19, 46, 101, 0.12)" stroke-width="1.5"></path><path d="M-50.9 343.1L201.53 548.12" stroke="rgba(19, 46, 101, 0.12)" stroke-width="1.5"></path><path d="M-48.92 493.56L-48.92 493.56" stroke="rgba(19, 46, 101, 0.12)" stroke-width="1.5"></path><path d="M-48.92 493.56L102.3 387.54" stroke="rgba(19, 46, 101, 0.12)" stroke-width="1.5"></path><path d="M-48.92 493.56L-68.59 700.2" stroke="rgba(19, 46, 101, 0.12)" stroke-width="1.5"></path><path d="M-68.59 700.2L-68.59 700.2" stroke="rgba(19, 46, 101, 0.12)" stroke-width="1.5"></path><path d="M-68.59 700.2L58.17 710.59" stroke="rgba(19, 46, 101, 0.12)" stroke-width="1.5"></path><path d="M-68.59 700.2L214.32 650.3" stroke="rgba(19, 46, 101, 0.12)" stroke-width="1.5"></path><path d="M-68.59 700.2L201.53 548.12" stroke="rgba(19, 46, 101, 0.12)" stroke-width="1.5"></path><path d="M-68.59 700.2L102.3 387.54" stroke="rgba(19, 46, 101, 0.12)" stroke-width="1.5"></path><path d="M102.3 387.54L102.3 387.54" stroke="rgba(19, 46, 101, 0.12)" stroke-width="1.5"></path><path d="M102.3 387.54L205.88 412.44" stroke="rgba(19, 46, 101, 0.12)" stroke-width="1.5"></path><path d="M58.17 710.59L58.17 710.59" stroke="rgba(19, 46, 101, 0.12)" stroke-width="1.5"></path><path d="M58.17 710.59L214.32 650.3" stroke="rgba(19, 46, 101, 0.12)" stroke-width="1.5"></path><path d="M205.88 412.44L205.88 412.44" stroke="rgba(19, 46, 101, 0.12)" stroke-width="1.5"></path><path d="M205.88 412.44L201.53 548.12" stroke="rgba(19, 46, 101, 0.12)" stroke-width="1.5"></path><path d="M205.88 412.44L410.7 394.15" stroke="rgba(19, 46, 101, 0.12)" stroke-width="1.5"></path><path d="M205.88 412.44L406.69 491.2" stroke="rgba(19, 46, 101, 0.12)" stroke-width="1.5"></path><path d="M205.88 412.44L214.32 650.3" stroke="rgba(19, 46, 101, 0.12)" stroke-width="1.5"></path><path d="M201.53 548.12L201.53 548.12" stroke="rgba(19, 46, 101, 0.12)" stroke-width="1.5"></path><path d="M201.53 548.12L214.32 650.3" stroke="rgba(19, 46, 101, 0.12)" stroke-width="1.5"></path><path d="M201.53 548.12L102.3 387.54" stroke="rgba(19, 46, 101, 0.12)" stroke-width="1.5"></path><path d="M201.53 548.12L406.69 491.2" stroke="rgba(19, 46, 101, 0.12)" stroke-width="1.5"></path><path d="M201.53 548.12L58.17 710.59" stroke="rgba(19, 46, 101, 0.12)" stroke-width="1.5"></path><path d="M201.53 548.12L386.26 674.69" stroke="rgba(19, 46, 101, 0.12)" stroke-width="1.5"></path><path d="M214.32 650.3L214.32 650.3" stroke="rgba(19, 46, 101, 0.12)" stroke-width="1.5"></path><path d="M214.32 650.3L386.26 674.69" stroke="rgba(19, 46, 101, 0.12)" stroke-width="1.5"></path><path d="M410.7 394.15L410.7 394.15" stroke="rgba(19, 46, 101, 0.12)" stroke-width="1.5"></path><path d="M410.7 394.15L406.69 491.2" stroke="rgba(19, 46, 101, 0.12)" stroke-width="1.5"></path><path d="M410.7 394.15L519.87 405.26" stroke="rgba(19, 46, 101, 0.12)" stroke-width="1.5"></path><path d="M410.7 394.15L658.7 381.5" stroke="rgba(19, 46, 101, 0.12)" stroke-width="1.5"></path><path d="M410.7 394.15L201.53 548.12" stroke="rgba(19, 46, 101, 0.12)" stroke-width="1.5"></path><path d="M406.69 491.2L406.69 491.2" stroke="rgba(19, 46, 101, 0.12)" stroke-width="1.5"></path><path d="M406.69 491.2L519.87 405.26" stroke="rgba(19, 46, 101, 0.12)" stroke-width="1.5"></path><path d="M386.26 674.69L386.26 674.69" stroke="rgba(19, 46, 101, 0.12)" stroke-width="1.5"></path><path d="M386.26 674.69L537.08 711.84" stroke="rgba(19, 46, 101, 0.12)" stroke-width="1.5"></path><path d="M386.26 674.69L406.69 491.2" stroke="rgba(19, 46, 101, 0.12)" stroke-width="1.5"></path><path d="M386.26 674.69L640.95 690.79" stroke="rgba(19, 46, 101, 0.12)" stroke-width="1.5"></path><path d="M386.26 674.69L410.7 394.15" stroke="rgba(19, 46, 101, 0.12)" stroke-width="1.5"></path><path d="M519.87 405.26L519.87 405.26" stroke="rgba(19, 46, 101, 0.12)" stroke-width="1.5"></path><path d="M519.87 405.26L658.7 381.5" stroke="rgba(19, 46, 101, 0.12)" stroke-width="1.5"></path><path d="M519.87 405.26L386.26 674.69" stroke="rgba(19, 46, 101, 0.12)" stroke-width="1.5"></path><path d="M519.87 405.26L537.08 711.84" stroke="rgba(19, 46, 101, 0.12)" stroke-width="1.5"></path><path d="M537.08 711.84L537.08 711.84" stroke="rgba(19, 46, 101, 0.12)" stroke-width="1.5"></path><path d="M537.08 711.84L640.95 690.79" stroke="rgba(19, 46, 101, 0.12)" stroke-width="1.5"></path><path d="M658.7 381.5L658.7 381.5" stroke="rgba(19, 46, 101, 0.12)" stroke-width="1.5"></path><path d="M658.7 381.5L837.29 355.48" stroke="rgba(19, 46, 101, 0.12)" stroke-width="1.5"></path><path d="M658.7 381.5L843.1 538.61" stroke="rgba(19, 46, 101, 0.12)" stroke-width="1.5"></path><path d="M658.7 381.5L846.3 216.51" stroke="rgba(19, 46, 101, 0.12)" stroke-width="1.5"></path><path d="M658.7 381.5L406.69 491.2" stroke="rgba(19, 46, 101, 0.12)" stroke-width="1.5"></path><path d="M640.95 690.79L640.95 690.79" stroke="rgba(19, 46, 101, 0.12)" stroke-width="1.5"></path><path d="M640.95 690.79L816.57 656.85" stroke="rgba(19, 46, 101, 0.12)" stroke-width="1.5"></path><path d="M640.95 690.79L843.1 538.61" stroke="rgba(19, 46, 101, 0.12)" stroke-width="1.5"></path><path d="M846.3 216.51L846.3 216.51" stroke="rgba(19, 46, 101, 0.12)" stroke-width="1.5"></path><path d="M846.3 216.51L940.65 205.04" stroke="rgba(19, 46, 101, 0.12)" stroke-width="1.5"></path><path d="M846.3 216.51L837.29 355.48" stroke="rgba(19, 46, 101, 0.12)" stroke-width="1.5"></path><path d="M846.3 216.51L998.08 95.92" stroke="rgba(19, 46, 101, 0.12)" stroke-width="1.5"></path><path d="M846.3 216.51L941.45 391.07" stroke="rgba(19, 46, 101, 0.12)" stroke-width="1.5"></path><path d="M837.29 355.48L837.29 355.48" stroke="rgba(19, 46, 101, 0.12)" stroke-width="1.5"></path><path d="M837.29 355.48L941.45 391.07" stroke="rgba(19, 46, 101, 0.12)" stroke-width="1.5"></path><path d="M837.29 355.48L940.65 205.04" stroke="rgba(19, 46, 101, 0.12)" stroke-width="1.5"></path><path d="M837.29 355.48L843.1 538.61" stroke="rgba(19, 46, 101, 0.12)" stroke-width="1.5"></path><path d="M843.1 538.61L843.1 538.61" stroke="rgba(19, 46, 101, 0.12)" stroke-width="1.5"></path><path d="M843.1 538.61L816.57 656.85" stroke="rgba(19, 46, 101, 0.12)" stroke-width="1.5"></path><path d="M843.1 538.61L965.63 558.09" stroke="rgba(19, 46, 101, 0.12)" stroke-width="1.5"></path><path d="M843.1 538.61L970.73 653.51" stroke="rgba(19, 46, 101, 0.12)" stroke-width="1.5"></path><path d="M816.57 656.85L816.57 656.85" stroke="rgba(19, 46, 101, 0.12)" stroke-width="1.5"></path><path d="M816.57 656.85L970.73 653.51" stroke="rgba(19, 46, 101, 0.12)" stroke-width="1.5"></path><path d="M816.57 656.85L965.63 558.09" stroke="rgba(19, 46, 101, 0.12)" stroke-width="1.5"></path><path d="M816.57 656.85L537.08 711.84" stroke="rgba(19, 46, 101, 0.12)" stroke-width="1.5"></path><path d="M968.76 -106.94L968.76 -106.94" stroke="rgba(19, 46, 101, 0.12)" stroke-width="1.5"></path><path d="M968.76 -106.94L1132.13 -37.59" stroke="rgba(19, 46, 101, 0.12)" stroke-width="1.5"></path><path d="M968.76 -106.94L998.08 95.92" stroke="rgba(19, 46, 101, 0.12)" stroke-width="1.5"></path><path d="M998.08 95.92L998.08 95.92" stroke="rgba(19, 46, 101, 0.12)" stroke-width="1.5"></path><path d="M998.08 95.92L1088.23 91.2" stroke="rgba(19, 46, 101, 0.12)" stroke-width="1.5"></path><path d="M998.08 95.92L940.65 205.04" stroke="rgba(19, 46, 101, 0.12)" stroke-width="1.5"></path><path d="M998.08 95.92L1132.13 -37.59" stroke="rgba(19, 46, 101, 0.12)" stroke-width="1.5"></path><path d="M940.65 205.04L940.65 205.04" stroke="rgba(19, 46, 101, 0.12)" stroke-width="1.5"></path><path d="M941.45 391.07L941.45 391.07" stroke="rgba(19, 46, 101, 0.12)" stroke-width="1.5"></path><path d="M941.45 391.07L1091.98 349.42" stroke="rgba(19, 46, 101, 0.12)" stroke-width="1.5"></path><path d="M941.45 391.07L965.63 558.09" stroke="rgba(19, 46, 101, 0.12)" stroke-width="1.5"></path><path d="M941.45 391.07L843.1 538.61" stroke="rgba(19, 46, 101, 0.12)" stroke-width="1.5"></path><path d="M965.63 558.09L965.63 558.09" stroke="rgba(19, 46, 101, 0.12)" stroke-width="1.5"></path><path d="M965.63 558.09L970.73 653.51" stroke="rgba(19, 46, 101, 0.12)" stroke-width="1.5"></path><path d="M965.63 558.09L1110.59 526.59" stroke="rgba(19, 46, 101, 0.12)" stroke-width="1.5"></path><path d="M970.73 653.51L970.73 653.51" stroke="rgba(19, 46, 101, 0.12)" stroke-width="1.5"></path><path d="M970.73 653.51L1112.26 708.47" stroke="rgba(19, 46, 101, 0.12)" stroke-width="1.5"></path><path d="M1132.13 -37.59L1132.13 -37.59" stroke="rgba(19, 46, 101, 0.12)" stroke-width="1.5"></path><path d="M1132.13 -37.59L1088.23 91.2" stroke="rgba(19, 46, 101, 0.12)" stroke-width="1.5"></path><path d="M1088.23 91.2L1088.23 91.2" stroke="rgba(19, 46, 101, 0.12)" stroke-width="1.5"></path><path d="M1088.23 91.2L940.65 205.04" stroke="rgba(19, 46, 101, 0.12)" stroke-width="1.5"></path><path d="M1088.23 91.2L1279.99 57.4" stroke="rgba(19, 46, 101, 0.12)" stroke-width="1.5"></path><path d="M1088.23 91.2L968.76 -106.94" stroke="rgba(19, 46, 101, 0.12)" stroke-width="1.5"></path><path d="M1091.98 349.42L1091.98 349.42" stroke="rgba(19, 46, 101, 0.12)" stroke-width="1.5"></path><path d="M1091.98 349.42L1110.59 526.59" stroke="rgba(19, 46, 101, 0.12)" stroke-width="1.5"></path><path d="M1091.98 349.42L940.65 205.04" stroke="rgba(19, 46, 101, 0.12)" stroke-width="1.5"></path><path d="M1091.98 349.42L1297.81 406.8" stroke="rgba(19, 46, 101, 0.12)" stroke-width="1.5"></path><path d="M1091.98 349.42L965.63 558.09" stroke="rgba(19, 46, 101, 0.12)" stroke-width="1.5"></path><path d="M1091.98 349.42L1307.67 217.72" stroke="rgba(19, 46, 101, 0.12)" stroke-width="1.5"></path><path d="M1110.59 526.59L1110.59 526.59" stroke="rgba(19, 46, 101, 0.12)" stroke-width="1.5"></path><path d="M1110.59 526.59L1285.48 545.97" stroke="rgba(19, 46, 101, 0.12)" stroke-width="1.5"></path><path d="M1112.26 708.47L1112.26 708.47" stroke="rgba(19, 46, 101, 0.12)" stroke-width="1.5"></path><path d="M1112.26 708.47L1272.87 648.5" stroke="rgba(19, 46, 101, 0.12)" stroke-width="1.5"></path><path d="M1112.26 708.47L1110.59 526.59" stroke="rgba(19, 46, 101, 0.12)" stroke-width="1.5"></path><path d="M1299.43 -64.27L1299.43 -64.27" stroke="rgba(19, 46, 101, 0.12)" stroke-width="1.5"></path><path d="M1299.43 -64.27L1279.99 57.4" stroke="rgba(19, 46, 101, 0.12)" stroke-width="1.5"></path><path d="M1299.43 -64.27L1434.1 -83.26" stroke="rgba(19, 46, 101, 0.12)" stroke-width="1.5"></path><path d="M1299.43 -64.27L1132.13 -37.59" stroke="rgba(19, 46, 101, 0.12)" stroke-width="1.5"></path><path d="M1299.43 -64.27L1401.47 94.67" stroke="rgba(19, 46, 101, 0.12)" stroke-width="1.5"></path><path d="M1299.43 -64.27L1544.75 -57.26" stroke="rgba(19, 46, 101, 0.12)" stroke-width="1.5"></path><path d="M1299.43 -64.27L1088.23 91.2" stroke="rgba(19, 46, 101, 0.12)" stroke-width="1.5"></path><path d="M1279.99 57.4L1279.99 57.4" stroke="rgba(19, 46, 101, 0.12)" stroke-width="1.5"></path><path d="M1279.99 57.4L1401.47 94.67" stroke="rgba(19, 46, 101, 0.12)" stroke-width="1.5"></path><path d="M1279.99 57.4L1307.67 217.72" stroke="rgba(19, 46, 101, 0.12)" stroke-width="1.5"></path><path d="M1307.67 217.72L1307.67 217.72" stroke="rgba(19, 46, 101, 0.12)" stroke-width="1.5"></path><path d="M1307.67 217.72L1405.05 245.68" stroke="rgba(19, 46, 101, 0.12)" stroke-width="1.5"></path><path d="M1307.67 217.72L1401.47 94.67" stroke="rgba(19, 46, 101, 0.12)" stroke-width="1.5"></path><path d="M1307.67 217.72L1297.81 406.8" stroke="rgba(19, 46, 101, 0.12)" stroke-width="1.5"></path><path d="M1307.67 217.72L1538.72 239.55" stroke="rgba(19, 46, 101, 0.12)" stroke-width="1.5"></path><path d="M1297.81 406.8L1297.81 406.8" stroke="rgba(19, 46, 101, 0.12)" stroke-width="1.5"></path><path d="M1297.81 406.8L1285.48 545.97" stroke="rgba(19, 46, 101, 0.12)" stroke-width="1.5"></path><path d="M1297.81 406.8L1393.35 521.01" stroke="rgba(19, 46, 101, 0.12)" stroke-width="1.5"></path><path d="M1297.81 406.8L1405.05 245.68" stroke="rgba(19, 46, 101, 0.12)" stroke-width="1.5"></path><path d="M1285.48 545.97L1285.48 545.97" stroke="rgba(19, 46, 101, 0.12)" stroke-width="1.5"></path><path d="M1285.48 545.97L1272.87 648.5" stroke="rgba(19, 46, 101, 0.12)" stroke-width="1.5"></path><path d="M1285.48 545.97L1393.35 521.01" stroke="rgba(19, 46, 101, 0.12)" stroke-width="1.5"></path><path d="M1272.87 648.5L1272.87 648.5" stroke="rgba(19, 46, 101, 0.12)" stroke-width="1.5"></path><path d="M1434.1 -83.26L1434.1 -83.26" stroke="rgba(19, 46, 101, 0.12)" stroke-width="1.5"></path><path d="M1434.1 -83.26L1544.75 -57.26" stroke="rgba(19, 46, 101, 0.12)" stroke-width="1.5"></path><path d="M1401.47 94.67L1401.47 94.67" stroke="rgba(19, 46, 101, 0.12)" stroke-width="1.5"></path><path d="M1401.47 94.67L1405.05 245.68" stroke="rgba(19, 46, 101, 0.12)" stroke-width="1.5"></path><path d="M1401.47 94.67L1575.08 44.5" stroke="rgba(19, 46, 101, 0.12)" stroke-width="1.5"></path><path d="M1405.05 245.68L1405.05 245.68" stroke="rgba(19, 46, 101, 0.12)" stroke-width="1.5"></path><path d="M1393.35 521.01L1393.35 521.01" stroke="rgba(19, 46, 101, 0.12)" stroke-width="1.5"></path><path d="M1393.35 521.01L1447.29 648.54" stroke="rgba(19, 46, 101, 0.12)" stroke-width="1.5"></path><path d="M1447.29 648.54L1447.29 648.54" stroke="rgba(19, 46, 101, 0.12)" stroke-width="1.5"></path><path d="M1447.29 648.54L1576.75 662.99" stroke="rgba(19, 46, 101, 0.12)" stroke-width="1.5"></path><path d="M1447.29 648.54L1272.87 648.5" stroke="rgba(19, 46, 101, 0.12)" stroke-width="1.5"></path><path d="M1447.29 648.54L1285.48 545.97" stroke="rgba(19, 46, 101, 0.12)" stroke-width="1.5"></path><path d="M1544.75 -57.26L1544.75 -57.26" stroke="rgba(19, 46, 101, 0.12)" stroke-width="1.5"></path><path d="M1544.75 -57.26L1575.08 44.5" stroke="rgba(19, 46, 101, 0.12)" stroke-width="1.5"></path><path d="M1575.08 44.5L1575.08 44.5" stroke="rgba(19, 46, 101, 0.12)" stroke-width="1.5"></path><path d="M1538.72 239.55L1538.72 239.55" stroke="rgba(19, 46, 101, 0.12)" stroke-width="1.5"></path><path d="M1538.72 239.55L1405.05 245.68" stroke="rgba(19, 46, 101, 0.12)" stroke-width="1.5"></path><path d="M1538.72 239.55L1553 405.58" stroke="rgba(19, 46, 101, 0.12)" stroke-width="1.5"></path><path d="M1538.72 239.55L1575.08 44.5" stroke="rgba(19, 46, 101, 0.12)" stroke-width="1.5"></path><path d="M1538.72 239.55L1401.47 94.67" stroke="rgba(19, 46, 101, 0.12)" stroke-width="1.5"></path><path d="M1538.72 239.55L1597.32 520.27" stroke="rgba(19, 46, 101, 0.12)" stroke-width="1.5"></path><path d="M1553 405.58L1553 405.58" stroke="rgba(19, 46, 101, 0.12)" stroke-width="1.5"></path><path d="M1553 405.58L1597.32 520.27" stroke="rgba(19, 46, 101, 0.12)" stroke-width="1.5"></path><path d="M1553 405.58L1393.35 521.01" stroke="rgba(19, 46, 101, 0.12)" stroke-width="1.5"></path><path d="M1553 405.58L1405.05 245.68" stroke="rgba(19, 46, 101, 0.12)" stroke-width="1.5"></path><path d="M1553 405.58L1297.81 406.8" stroke="rgba(19, 46, 101, 0.12)" stroke-width="1.5"></path><path d="M1553 405.58L1576.75 662.99" stroke="rgba(19, 46, 101, 0.12)" stroke-width="1.5"></path><path d="M1597.32 520.27L1597.32 520.27" stroke="rgba(19, 46, 101, 0.12)" stroke-width="1.5"></path><path d="M1597.32 520.27L1576.75 662.99" stroke="rgba(19, 46, 101, 0.12)" stroke-width="1.5"></path><path d="M1597.32 520.27L1447.29 648.54" stroke="rgba(19, 46, 101, 0.12)" stroke-width="1.5"></path><path d="M1597.32 520.27L1393.35 521.01" stroke="rgba(19, 46, 101, 0.12)" stroke-width="1.5"></path><path d="M1576.75 662.99L1576.75 662.99" stroke="rgba(19, 46, 101, 0.12)" stroke-width="1.5"></path><path d="M1576.75 662.99L1393.35 521.01" stroke="rgba(19, 46, 101, 0.12)" stroke-width="1.5"></path><circle r="5" cx="-50.9" cy="343.1" fill="rgba(19, 46, 101, 0.12)"></circle><circle r="5" cx="-48.92" cy="493.56" fill="rgba(19, 46, 101, 0.12)"></circle><circle r="5" cx="-68.59" cy="700.2" fill="rgba(19, 46, 101, 0.12)"></circle><circle r="5" cx="102.3" cy="387.54" fill="rgba(19, 46, 101, 0.12)"></circle><circle r="5" cx="58.17" cy="710.59" fill="rgba(19, 46, 101, 0.12)"></circle><circle r="5" cx="205.88" cy="412.44" fill="rgba(19, 46, 101, 0.12)"></circle><circle r="5" cx="201.53" cy="548.12" fill="rgba(19, 46, 101, 0.12)"></circle><circle r="5" cx="214.32" cy="650.3" fill="rgba(19, 46, 101, 0.12)"></circle><circle r="5" cx="410.7" cy="394.15" fill="rgba(19, 46, 101, 0.12)"></circle><circle r="5" cx="406.69" cy="491.2" fill="rgba(19, 46, 101, 0.12)"></circle><circle r="5" cx="386.26" cy="674.69" fill="rgba(19, 46, 101, 0.12)"></circle><circle r="5" cx="519.87" cy="405.26" fill="rgba(19, 46, 101, 0.12)"></circle><circle r="5" cx="537.08" cy="711.84" fill="rgba(19, 46, 101, 0.12)"></circle><circle r="5" cx="658.7" cy="381.5" fill="rgba(19, 46, 101, 0.12)"></circle><circle r="5" cx="640.95" cy="690.79" fill="rgba(19, 46, 101, 0.12)"></circle><circle r="5" cx="846.3" cy="216.51" fill="rgba(19, 46, 101, 0.12)"></circle><circle r="5" cx="837.29" cy="355.48" fill="rgba(19, 46, 101, 0.12)"></circle><circle r="5" cx="843.1" cy="538.61" fill="rgba(19, 46, 101, 0.12)"></circle><circle r="5" cx="816.57" cy="656.85" fill="rgba(19, 46, 101, 0.12)"></circle><circle r="5" cx="968.76" cy="-106.94" fill="rgba(19, 46, 101, 0.12)"></circle><circle r="5" cx="998.08" cy="95.92" fill="rgba(19, 46, 101, 0.12)"></circle><circle r="5" cx="940.65" cy="205.04" fill="rgba(19, 46, 101, 0.12)"></circle><circle r="5" cx="941.45" cy="391.07" fill="rgba(19, 46, 101, 0.12)"></circle><circle r="5" cx="965.63" cy="558.09" fill="rgba(19, 46, 101, 0.12)"></circle><circle r="5" cx="970.73" cy="653.51" fill="rgba(19, 46, 101, 0.12)"></circle><circle r="5" cx="1132.13" cy="-37.59" fill="rgba(19, 46, 101, 0.12)"></circle><circle r="5" cx="1088.23" cy="91.2" fill="rgba(19, 46, 101, 0.12)"></circle><circle r="5" cx="1091.98" cy="349.42" fill="rgba(19, 46, 101, 0.12)"></circle><circle r="5" cx="1110.59" cy="526.59" fill="rgba(19, 46, 101, 0.12)"></circle><circle r="5" cx="1112.26" cy="708.47" fill="rgba(19, 46, 101, 0.12)"></circle><circle r="5" cx="1299.43" cy="-64.27" fill="rgba(19, 46, 101, 0.12)"></circle><circle r="5" cx="1279.99" cy="57.4" fill="rgba(19, 46, 101, 0.12)"></circle><circle r="5" cx="1307.67" cy="217.72" fill="rgba(19, 46, 101, 0.12)"></circle><circle r="5" cx="1297.81" cy="406.8" fill="rgba(19, 46, 101, 0.12)"></circle><circle r="5" cx="1285.48" cy="545.97" fill="rgba(19, 46, 101, 0.12)"></circle><circle r="5" cx="1272.87" cy="648.5" fill="rgba(19, 46, 101, 0.12)"></circle><circle r="5" cx="1434.1" cy="-83.26" fill="rgba(19, 46, 101, 0.12)"></circle><circle r="5" cx="1401.47" cy="94.67" fill="rgba(19, 46, 101, 0.12)"></circle><circle r="5" cx="1405.05" cy="245.68" fill="rgba(19, 46, 101, 0.12)"></circle><circle r="5" cx="1393.35" cy="521.01" fill="rgba(19, 46, 101, 0.12)"></circle><circle r="5" cx="1447.29" cy="648.54" fill="rgba(19, 46, 101, 0.12)"></circle><circle r="5" cx="1544.75" cy="-57.26" fill="rgba(19, 46, 101, 0.12)"></circle><circle r="5" cx="1575.08" cy="44.5" fill="rgba(19, 46, 101, 0.12)"></circle><circle r="5" cx="1538.72" cy="239.55" fill="rgba(19, 46, 101, 0.12)"></circle><circle r="5" cx="1553" cy="405.58" fill="rgba(19, 46, 101, 0.12)"></circle><circle r="5" cx="1597.32" cy="520.27" fill="rgba(19, 46, 101, 0.12)"></circle><circle r="5" cx="1576.75" cy="662.99" fill="rgba(19, 46, 101, 0.12)"></circle><path d="M93.43 487.97L93.43 487.97" stroke="hsla(228.5, 77.2%, 51.5%, 0.36)" stroke-width="1.5"></path><path d="M93.43 487.97L189.13 544.38" stroke="hsla(228.5, 77.2%, 51.5%, 0.36)" stroke-width="1.5"></path><path d="M93.43 487.97L-99.7 536.37" stroke="hsla(228.5, 77.2%, 51.5%, 0.36)" stroke-width="1.5"></path><path d="M93.43 487.97L199.24 691.08" stroke="hsla(228.5, 77.2%, 51.5%, 0.36)" stroke-width="1.5"></path><path d="M93.43 487.97L41.73 711.53" stroke="hsla(228.5, 77.2%, 51.5%, 0.36)" stroke-width="1.5"></path><path d="M347.45 539.95L347.45 539.95" stroke="hsla(228.5, 77.2%, 51.5%, 0.36)" stroke-width="1.5"></path><path d="M347.45 539.95L375.04 664.44" stroke="hsla(228.5, 77.2%, 51.5%, 0.36)" stroke-width="1.5"></path><path d="M347.45 539.95L189.13 544.38" stroke="hsla(228.5, 77.2%, 51.5%, 0.36)" stroke-width="1.5"></path><path d="M347.45 539.95L507.1 502.09" stroke="hsla(228.5, 77.2%, 51.5%, 0.36)" stroke-width="1.5"></path><path d="M347.45 539.95L199.24 691.08" stroke="hsla(228.5, 77.2%, 51.5%, 0.36)" stroke-width="1.5"></path><path d="M545.07 671.53L545.07 671.53" stroke="hsla(228.5, 77.2%, 51.5%, 0.36)" stroke-width="1.5"></path><path d="M545.07 671.53L708.79 660.55" stroke="hsla(228.5, 77.2%, 51.5%, 0.36)" stroke-width="1.5"></path><path d="M545.07 671.53L375.04 664.44" stroke="hsla(228.5, 77.2%, 51.5%, 0.36)" stroke-width="1.5"></path><path d="M545.07 671.53L507.1 502.09" stroke="hsla(228.5, 77.2%, 51.5%, 0.36)" stroke-width="1.5"></path><path d="M545.07 671.53L707.23 503.61" stroke="hsla(228.5, 77.2%, 51.5%, 0.36)" stroke-width="1.5"></path><path d="M545.07 671.53L347.45 539.95" stroke="hsla(228.5, 77.2%, 51.5%, 0.36)" stroke-width="1.5"></path><path d="M545.07 671.53L822.74 695.28" stroke="hsla(228.5, 77.2%, 51.5%, 0.36)" stroke-width="1.5"></path><path d="M842.46 352.21L842.46 352.21" stroke="hsla(228.5, 77.2%, 51.5%, 0.36)" stroke-width="1.5"></path><path d="M842.46 352.21L988.6 370.44" stroke="hsla(228.5, 77.2%, 51.5%, 0.36)" stroke-width="1.5"></path><path d="M842.46 352.21L696.12 393.63" stroke="hsla(228.5, 77.2%, 51.5%, 0.36)" stroke-width="1.5"></path><path d="M842.46 352.21L799.06 505.72" stroke="hsla(228.5, 77.2%, 51.5%, 0.36)" stroke-width="1.5"></path><path d="M842.46 352.21L707.23 503.61" stroke="hsla(228.5, 77.2%, 51.5%, 0.36)" stroke-width="1.5"></path><path d="M842.46 352.21L1011.84 490.07" stroke="hsla(228.5, 77.2%, 51.5%, 0.36)" stroke-width="1.5"></path><path d="M822.74 695.28L822.74 695.28" stroke="hsla(228.5, 77.2%, 51.5%, 0.36)" stroke-width="1.5"></path><path d="M822.74 695.28L708.79 660.55" stroke="hsla(228.5, 77.2%, 51.5%, 0.36)" stroke-width="1.5"></path><path d="M822.74 695.28L961.04 688.59" stroke="hsla(228.5, 77.2%, 51.5%, 0.36)" stroke-width="1.5"></path><path d="M822.74 695.28L799.06 505.72" stroke="hsla(228.5, 77.2%, 51.5%, 0.36)" stroke-width="1.5"></path><path d="M822.74 695.28L707.23 503.61" stroke="hsla(228.5, 77.2%, 51.5%, 0.36)" stroke-width="1.5"></path><path d="M1088.07 542.3L1088.07 542.3" stroke="hsla(228.5, 77.2%, 51.5%, 0.36)" stroke-width="1.5"></path><path d="M1088.07 542.3L1011.84 490.07" stroke="hsla(228.5, 77.2%, 51.5%, 0.36)" stroke-width="1.5"></path><path d="M1088.07 542.3L1129.72 655.73" stroke="hsla(228.5, 77.2%, 51.5%, 0.36)" stroke-width="1.5"></path><path d="M1088.07 542.3L1242.61 528.08" stroke="hsla(228.5, 77.2%, 51.5%, 0.36)" stroke-width="1.5"></path><path d="M1296.88 -79.08L1296.88 -79.08" stroke="hsla(228.5, 77.2%, 51.5%, 0.36)" stroke-width="1.5"></path><path d="M1296.88 -79.08L1389.03 -82.77" stroke="hsla(228.5, 77.2%, 51.5%, 0.36)" stroke-width="1.5"></path><path d="M1296.88 -79.08L1156.92 -98.99" stroke="hsla(228.5, 77.2%, 51.5%, 0.36)" stroke-width="1.5"></path><path d="M1296.88 -79.08L1303.71 105.27" stroke="hsla(228.5, 77.2%, 51.5%, 0.36)" stroke-width="1.5"></path><path d="M1296.88 -79.08L1441.94 77.64" stroke="hsla(228.5, 77.2%, 51.5%, 0.36)" stroke-width="1.5"></path><path d="M1296.88 -79.08L1133.96 107.99" stroke="hsla(228.5, 77.2%, 51.5%, 0.36)" stroke-width="1.5"></path><path d="M1296.88 -79.08L1573.21 -45.52" stroke="hsla(228.5, 77.2%, 51.5%, 0.36)" stroke-width="1.5"></path><path d="M1303.71 105.27L1303.71 105.27" stroke="hsla(228.5, 77.2%, 51.5%, 0.36)" stroke-width="1.5"></path><path d="M1303.71 105.27L1441.94 77.64" stroke="hsla(228.5, 77.2%, 51.5%, 0.36)" stroke-width="1.5"></path><path d="M1303.71 105.27L1133.96 107.99" stroke="hsla(228.5, 77.2%, 51.5%, 0.36)" stroke-width="1.5"></path><path d="M1242.61 528.08L1242.61 528.08" stroke="hsla(228.5, 77.2%, 51.5%, 0.36)" stroke-width="1.5"></path><path d="M1242.61 528.08L1245.36 657.68" stroke="hsla(228.5, 77.2%, 51.5%, 0.36)" stroke-width="1.5"></path><path d="M1242.61 528.08L1129.72 655.73" stroke="hsla(228.5, 77.2%, 51.5%, 0.36)" stroke-width="1.5"></path><path d="M1441.94 77.64L1441.94 77.64" stroke="hsla(228.5, 77.2%, 51.5%, 0.36)" stroke-width="1.5"></path><path d="M1441.94 77.64L1566.39 92.36" stroke="hsla(228.5, 77.2%, 51.5%, 0.36)" stroke-width="1.5"></path><path d="M1441.94 77.64L1412.29 243.53" stroke="hsla(228.5, 77.2%, 51.5%, 0.36)" stroke-width="1.5"></path><path d="M1441.94 77.64L1389.03 -82.77" stroke="hsla(228.5, 77.2%, 51.5%, 0.36)" stroke-width="1.5"></path><path d="M1412.29 243.53L1412.29 243.53" stroke="hsla(228.5, 77.2%, 51.5%, 0.36)" stroke-width="1.5"></path><path d="M1412.29 243.53L1461.97 382.73" stroke="hsla(228.5, 77.2%, 51.5%, 0.36)" stroke-width="1.5"></path><path d="M1412.29 243.53L1571.39 198.8" stroke="hsla(228.5, 77.2%, 51.5%, 0.36)" stroke-width="1.5"></path><path d="M1412.29 243.53L1303.71 105.27" stroke="hsla(228.5, 77.2%, 51.5%, 0.36)" stroke-width="1.5"></path><path d="M1412.29 243.53L1561.69 393.45" stroke="hsla(228.5, 77.2%, 51.5%, 0.36)" stroke-width="1.5"></path><path d="M1419.77 521.84L1419.77 521.84" stroke="hsla(228.5, 77.2%, 51.5%, 0.36)" stroke-width="1.5"></path><path d="M1419.77 521.84L1557.91 529.04" stroke="hsla(228.5, 77.2%, 51.5%, 0.36)" stroke-width="1.5"></path><path d="M1419.77 521.84L1461.97 382.73" stroke="hsla(228.5, 77.2%, 51.5%, 0.36)" stroke-width="1.5"></path><path d="M1573.21 -45.52L1573.21 -45.52" stroke="hsla(228.5, 77.2%, 51.5%, 0.36)" stroke-width="1.5"></path><path d="M1573.21 -45.52L1566.39 92.36" stroke="hsla(228.5, 77.2%, 51.5%, 0.36)" stroke-width="1.5"></path><path d="M1573.21 -45.52L1441.94 77.64" stroke="hsla(228.5, 77.2%, 51.5%, 0.36)" stroke-width="1.5"></path><path d="M1573.21 -45.52L1389.03 -82.77" stroke="hsla(228.5, 77.2%, 51.5%, 0.36)" stroke-width="1.5"></path><path d="M1573.21 -45.52L1571.39 198.8" stroke="hsla(228.5, 77.2%, 51.5%, 0.36)" stroke-width="1.5"></path><path d="M-99.7 536.37L-99.7 536.37" stroke="hsla(228.5, 77.2%, 51.5%, 0.36)" stroke-width="1.5"></path><path d="M-99.7 536.37L-110.94 694.96" stroke="hsla(228.5, 77.2%, 51.5%, 0.36)" stroke-width="1.5"></path><path d="M-99.7 536.37L41.73 711.53" stroke="hsla(228.5, 77.2%, 51.5%, 0.36)" stroke-width="1.5"></path><path d="M-99.7 536.37L189.13 544.38" stroke="hsla(228.5, 77.2%, 51.5%, 0.36)" stroke-width="1.5"></path><path d="M-110.94 694.96L-110.94 694.96" stroke="hsla(228.5, 77.2%, 51.5%, 0.36)" stroke-width="1.5"></path><path d="M-110.94 694.96L41.73 711.53" stroke="hsla(228.5, 77.2%, 51.5%, 0.36)" stroke-width="1.5"></path><path d="M-110.94 694.96L93.43 487.97" stroke="hsla(228.5, 77.2%, 51.5%, 0.36)" stroke-width="1.5"></path><path d="M41.73 711.53L41.73 711.53" stroke="hsla(228.5, 77.2%, 51.5%, 0.36)" stroke-width="1.5"></path><path d="M41.73 711.53L199.24 691.08" stroke="hsla(228.5, 77.2%, 51.5%, 0.36)" stroke-width="1.5"></path><path d="M41.73 711.53L189.13 544.38" stroke="hsla(228.5, 77.2%, 51.5%, 0.36)" stroke-width="1.5"></path><path d="M189.13 544.38L189.13 544.38" stroke="hsla(228.5, 77.2%, 51.5%, 0.36)" stroke-width="1.5"></path><path d="M189.13 544.38L199.24 691.08" stroke="hsla(228.5, 77.2%, 51.5%, 0.36)" stroke-width="1.5"></path><path d="M199.24 691.08L199.24 691.08" stroke="hsla(228.5, 77.2%, 51.5%, 0.36)" stroke-width="1.5"></path><path d="M375.04 664.44L375.04 664.44" stroke="hsla(228.5, 77.2%, 51.5%, 0.36)" stroke-width="1.5"></path><path d="M375.04 664.44L199.24 691.08" stroke="hsla(228.5, 77.2%, 51.5%, 0.36)" stroke-width="1.5"></path><path d="M375.04 664.44L507.1 502.09" stroke="hsla(228.5, 77.2%, 51.5%, 0.36)" stroke-width="1.5"></path><path d="M375.04 664.44L189.13 544.38" stroke="hsla(228.5, 77.2%, 51.5%, 0.36)" stroke-width="1.5"></path><path d="M507.1 502.09L507.1 502.09" stroke="hsla(228.5, 77.2%, 51.5%, 0.36)" stroke-width="1.5"></path><path d="M696.12 393.63L696.12 393.63" stroke="hsla(228.5, 77.2%, 51.5%, 0.36)" stroke-width="1.5"></path><path d="M696.12 393.63L707.23 503.61" stroke="hsla(228.5, 77.2%, 51.5%, 0.36)" stroke-width="1.5"></path><path d="M707.23 503.61L707.23 503.61" stroke="hsla(228.5, 77.2%, 51.5%, 0.36)" stroke-width="1.5"></path><path d="M707.23 503.61L799.06 505.72" stroke="hsla(228.5, 77.2%, 51.5%, 0.36)" stroke-width="1.5"></path><path d="M707.23 503.61L708.79 660.55" stroke="hsla(228.5, 77.2%, 51.5%, 0.36)" stroke-width="1.5"></path><path d="M707.23 503.61L507.1 502.09" stroke="hsla(228.5, 77.2%, 51.5%, 0.36)" stroke-width="1.5"></path><path d="M708.79 660.55L708.79 660.55" stroke="hsla(228.5, 77.2%, 51.5%, 0.36)" stroke-width="1.5"></path><path d="M708.79 660.55L799.06 505.72" stroke="hsla(228.5, 77.2%, 51.5%, 0.36)" stroke-width="1.5"></path><path d="M708.79 660.55L961.04 688.59" stroke="hsla(228.5, 77.2%, 51.5%, 0.36)" stroke-width="1.5"></path><path d="M799.06 505.72L799.06 505.72" stroke="hsla(228.5, 77.2%, 51.5%, 0.36)" stroke-width="1.5"></path><path d="M799.06 505.72L696.12 393.63" stroke="hsla(228.5, 77.2%, 51.5%, 0.36)" stroke-width="1.5"></path><path d="M988.6 370.44L988.6 370.44" stroke="hsla(228.5, 77.2%, 51.5%, 0.36)" stroke-width="1.5"></path><path d="M988.6 370.44L1011.84 490.07" stroke="hsla(228.5, 77.2%, 51.5%, 0.36)" stroke-width="1.5"></path><path d="M988.6 370.44L1132.87 382.28" stroke="hsla(228.5, 77.2%, 51.5%, 0.36)" stroke-width="1.5"></path><path d="M1011.84 490.07L1011.84 490.07" stroke="hsla(228.5, 77.2%, 51.5%, 0.36)" stroke-width="1.5"></path><path d="M1011.84 490.07L1132.87 382.28" stroke="hsla(228.5, 77.2%, 51.5%, 0.36)" stroke-width="1.5"></path><path d="M1011.84 490.07L1129.72 655.73" stroke="hsla(228.5, 77.2%, 51.5%, 0.36)" stroke-width="1.5"></path><path d="M1011.84 490.07L961.04 688.59" stroke="hsla(228.5, 77.2%, 51.5%, 0.36)" stroke-width="1.5"></path><path d="M1011.84 490.07L799.06 505.72" stroke="hsla(228.5, 77.2%, 51.5%, 0.36)" stroke-width="1.5"></path><path d="M961.04 688.59L961.04 688.59" stroke="hsla(228.5, 77.2%, 51.5%, 0.36)" stroke-width="1.5"></path><path d="M961.04 688.59L1129.72 655.73" stroke="hsla(228.5, 77.2%, 51.5%, 0.36)" stroke-width="1.5"></path><path d="M961.04 688.59L1088.07 542.3" stroke="hsla(228.5, 77.2%, 51.5%, 0.36)" stroke-width="1.5"></path><path d="M961.04 688.59L799.06 505.72" stroke="hsla(228.5, 77.2%, 51.5%, 0.36)" stroke-width="1.5"></path><path d="M1156.92 -98.99L1156.92 -98.99" stroke="hsla(228.5, 77.2%, 51.5%, 0.36)" stroke-width="1.5"></path><path d="M1156.92 -98.99L1133.96 107.99" stroke="hsla(228.5, 77.2%, 51.5%, 0.36)" stroke-width="1.5"></path><path d="M1133.96 107.99L1133.96 107.99" stroke="hsla(228.5, 77.2%, 51.5%, 0.36)" stroke-width="1.5"></path><path d="M1133.96 107.99L1105.22 196.89" stroke="hsla(228.5, 77.2%, 51.5%, 0.36)" stroke-width="1.5"></path><path d="M1105.22 196.89L1105.22 196.89" stroke="hsla(228.5, 77.2%, 51.5%, 0.36)" stroke-width="1.5"></path><path d="M1105.22 196.89L1132.87 382.28" stroke="hsla(228.5, 77.2%, 51.5%, 0.36)" stroke-width="1.5"></path><path d="M1105.22 196.89L988.6 370.44" stroke="hsla(228.5, 77.2%, 51.5%, 0.36)" stroke-width="1.5"></path><path d="M1105.22 196.89L1303.71 105.27" stroke="hsla(228.5, 77.2%, 51.5%, 0.36)" stroke-width="1.5"></path><path d="M1132.87 382.28L1132.87 382.28" stroke="hsla(228.5, 77.2%, 51.5%, 0.36)" stroke-width="1.5"></path><path d="M1132.87 382.28L1088.07 542.3" stroke="hsla(228.5, 77.2%, 51.5%, 0.36)" stroke-width="1.5"></path><path d="M1132.87 382.28L1242.61 528.08" stroke="hsla(228.5, 77.2%, 51.5%, 0.36)" stroke-width="1.5"></path><path d="M1132.87 382.28L1129.72 655.73" stroke="hsla(228.5, 77.2%, 51.5%, 0.36)" stroke-width="1.5"></path><path d="M1129.72 655.73L1129.72 655.73" stroke="hsla(228.5, 77.2%, 51.5%, 0.36)" stroke-width="1.5"></path><path d="M1129.72 655.73L1245.36 657.68" stroke="hsla(228.5, 77.2%, 51.5%, 0.36)" stroke-width="1.5"></path><path d="M1245.36 657.68L1245.36 657.68" stroke="hsla(228.5, 77.2%, 51.5%, 0.36)" stroke-width="1.5"></path><path d="M1245.36 657.68L1409.31 688.86" stroke="hsla(228.5, 77.2%, 51.5%, 0.36)" stroke-width="1.5"></path><path d="M1245.36 657.68L1088.07 542.3" stroke="hsla(228.5, 77.2%, 51.5%, 0.36)" stroke-width="1.5"></path><path d="M1389.03 -82.77L1389.03 -82.77" stroke="hsla(228.5, 77.2%, 51.5%, 0.36)" stroke-width="1.5"></path><path d="M1389.03 -82.77L1303.71 105.27" stroke="hsla(228.5, 77.2%, 51.5%, 0.36)" stroke-width="1.5"></path><path d="M1389.03 -82.77L1156.92 -98.99" stroke="hsla(228.5, 77.2%, 51.5%, 0.36)" stroke-width="1.5"></path><path d="M1461.97 382.73L1461.97 382.73" stroke="hsla(228.5, 77.2%, 51.5%, 0.36)" stroke-width="1.5"></path><path d="M1461.97 382.73L1561.69 393.45" stroke="hsla(228.5, 77.2%, 51.5%, 0.36)" stroke-width="1.5"></path><path d="M1409.31 688.86L1409.31 688.86" stroke="hsla(228.5, 77.2%, 51.5%, 0.36)" stroke-width="1.5"></path><path d="M1409.31 688.86L1419.77 521.84" stroke="hsla(228.5, 77.2%, 51.5%, 0.36)" stroke-width="1.5"></path><path d="M1409.31 688.86L1599.73 669.07" stroke="hsla(228.5, 77.2%, 51.5%, 0.36)" stroke-width="1.5"></path><path d="M1409.31 688.86L1557.91 529.04" stroke="hsla(228.5, 77.2%, 51.5%, 0.36)" stroke-width="1.5"></path><path d="M1409.31 688.86L1242.61 528.08" stroke="hsla(228.5, 77.2%, 51.5%, 0.36)" stroke-width="1.5"></path><path d="M1566.39 92.36L1566.39 92.36" stroke="hsla(228.5, 77.2%, 51.5%, 0.36)" stroke-width="1.5"></path><path d="M1566.39 92.36L1571.39 198.8" stroke="hsla(228.5, 77.2%, 51.5%, 0.36)" stroke-width="1.5"></path><path d="M1566.39 92.36L1412.29 243.53" stroke="hsla(228.5, 77.2%, 51.5%, 0.36)" stroke-width="1.5"></path><path d="M1571.39 198.8L1571.39 198.8" stroke="hsla(228.5, 77.2%, 51.5%, 0.36)" stroke-width="1.5"></path><path d="M1571.39 198.8L1441.94 77.64" stroke="hsla(228.5, 77.2%, 51.5%, 0.36)" stroke-width="1.5"></path><path d="M1561.69 393.45L1561.69 393.45" stroke="hsla(228.5, 77.2%, 51.5%, 0.36)" stroke-width="1.5"></path><path d="M1557.91 529.04L1557.91 529.04" stroke="hsla(228.5, 77.2%, 51.5%, 0.36)" stroke-width="1.5"></path><path d="M1557.91 529.04L1561.69 393.45" stroke="hsla(228.5, 77.2%, 51.5%, 0.36)" stroke-width="1.5"></path><path d="M1599.73 669.07L1599.73 669.07" stroke="hsla(228.5, 77.2%, 51.5%, 0.36)" stroke-width="1.5"></path><path d="M1599.73 669.07L1557.91 529.04" stroke="hsla(228.5, 77.2%, 51.5%, 0.36)" stroke-width="1.5"></path><path d="M1599.73 669.07L1419.77 521.84" stroke="hsla(228.5, 77.2%, 51.5%, 0.36)" stroke-width="1.5"></path><path d="M1599.73 669.07L1561.69 393.45" stroke="hsla(228.5, 77.2%, 51.5%, 0.36)" stroke-width="1.5"></path><path d="M1599.73 669.07L1461.97 382.73" stroke="hsla(228.5, 77.2%, 51.5%, 0.36)" stroke-width="1.5"></path><circle r="25" cx="93.43" cy="487.97" fill="url(&quot;#SvgjsRadialGradient1005&quot;)"></circle><circle r="25" cx="347.45" cy="539.95" fill="url(&quot;#SvgjsRadialGradient1005&quot;)"></circle><circle r="25" cx="545.07" cy="671.53" fill="url(&quot;#SvgjsRadialGradient1005&quot;)"></circle><circle r="25" cx="842.46" cy="352.21" fill="url(&quot;#SvgjsRadialGradient1005&quot;)"></circle><circle r="25" cx="822.74" cy="695.28" fill="url(&quot;#SvgjsRadialGradient1005&quot;)"></circle><circle r="25" cx="1088.07" cy="542.3" fill="url(&quot;#SvgjsRadialGradient1005&quot;)"></circle><circle r="25" cx="1296.88" cy="-79.08" fill="url(&quot;#SvgjsRadialGradient1005&quot;)"></circle><circle r="25" cx="1303.71" cy="105.27" fill="url(&quot;#SvgjsRadialGradient1005&quot;)"></circle><circle r="25" cx="1242.61" cy="528.08" fill="url(&quot;#SvgjsRadialGradient1005&quot;)"></circle><circle r="25" cx="1441.94" cy="77.64" fill="url(&quot;#SvgjsRadialGradient1005&quot;)"></circle><circle r="25" cx="1412.29" cy="243.53" fill="url(&quot;#SvgjsRadialGradient1005&quot;)"></circle><circle r="25" cx="1419.77" cy="521.84" fill="url(&quot;#SvgjsRadialGradient1005&quot;)"></circle><circle r="25" cx="1573.21" cy="-45.52" fill="url(&quot;#SvgjsRadialGradient1005&quot;)"></circle><circle r="5" cx="-99.7" cy="536.37" fill="rgba(213, 219, 241, 0.6799999999999999)"></circle><circle r="5" cx="-110.94" cy="694.96" fill="rgba(213, 219, 241, 0.6799999999999999)"></circle><circle r="5" cx="41.73" cy="711.53" fill="rgba(213, 219, 241, 0.6799999999999999)"></circle><circle r="5" cx="189.13" cy="544.38" fill="rgba(213, 219, 241, 0.6799999999999999)"></circle><circle r="5" cx="199.24" cy="691.08" fill="rgba(213, 219, 241, 0.6799999999999999)"></circle><circle r="5" cx="375.04" cy="664.44" fill="rgba(213, 219, 241, 0.6799999999999999)"></circle><circle r="5" cx="507.1" cy="502.09" fill="rgba(213, 219, 241, 0.6799999999999999)"></circle><circle r="5" cx="696.12" cy="393.63" fill="rgba(213, 219, 241, 0.6799999999999999)"></circle><circle r="5" cx="707.23" cy="503.61" fill="rgba(213, 219, 241, 0.6799999999999999)"></circle><circle r="5" cx="708.79" cy="660.55" fill="rgba(213, 219, 241, 0.6799999999999999)"></circle><circle r="5" cx="799.06" cy="505.72" fill="rgba(213, 219, 241, 0.6799999999999999)"></circle><circle r="5" cx="988.6" cy="370.44" fill="rgba(213, 219, 241, 0.6799999999999999)"></circle><circle r="5" cx="1011.84" cy="490.07" fill="rgba(213, 219, 241, 0.6799999999999999)"></circle><circle r="5" cx="961.04" cy="688.59" fill="rgba(213, 219, 241, 0.6799999999999999)"></circle><circle r="5" cx="1156.92" cy="-98.99" fill="rgba(213, 219, 241, 0.6799999999999999)"></circle><circle r="5" cx="1133.96" cy="107.99" fill="rgba(213, 219, 241, 0.6799999999999999)"></circle><circle r="5" cx="1105.22" cy="196.89" fill="rgba(213, 219, 241, 0.6799999999999999)"></circle><circle r="5" cx="1132.87" cy="382.28" fill="rgba(213, 219, 241, 0.6799999999999999)"></circle><circle r="5" cx="1129.72" cy="655.73" fill="rgba(213, 219, 241, 0.6799999999999999)"></circle><circle r="5" cx="1245.36" cy="657.68" fill="rgba(213, 219, 241, 0.6799999999999999)"></circle><circle r="5" cx="1389.03" cy="-82.77" fill="rgba(213, 219, 241, 0.6799999999999999)"></circle><circle r="5" cx="1461.97" cy="382.73" fill="rgba(213, 219, 241, 0.6799999999999999)"></circle><circle r="5" cx="1409.31" cy="688.86" fill="rgba(213, 219, 241, 0.6799999999999999)"></circle><circle r="5" cx="1566.39" cy="92.36" fill="rgba(213, 219, 241, 0.6799999999999999)"></circle><circle r="5" cx="1571.39" cy="198.8" fill="rgba(213, 219, 241, 0.6799999999999999)"></circle><circle r="5" cx="1561.69" cy="393.45" fill="rgba(213, 219, 241, 0.6799999999999999)"></circle><circle r="5" cx="1557.91" cy="529.04" fill="rgba(213, 219, 241, 0.6799999999999999)"></circle><circle r="5" cx="1599.73" cy="669.07" fill="rgba(213, 219, 241, 0.6799999999999999)"></circle></g><defs><mask id="SvgjsMask1003"><rect width="1440" height="560" fill="#ffffff"></rect></mask><radialGradient cx="0%" cy="0%" r="1545.06" gradientUnits="userSpaceOnUse" id="SvgjsRadialGradient1004"><stop stop-color="rgba(8, 113, 223, 1)" offset="0"></stop><stop stop-color="rgba(38, 238, 248, 1)" offset="1"></stop></radialGradient><radialGradient id="SvgjsRadialGradient1005"><stop stop-color="#ffffff" offset="0.1"></stop><stop stop-color="rgba(23, 53, 179, 0.36)" offset="0.2"></stop><stop stop-color="rgba(23, 53, 179, 0)" offset="1"></stop></radialGradient></defs></svg>